<svg width="21" height="21" viewBox="0 0 21 21" fill="none" xmlns="http://www.w3.org/2000/svg">
<path d="M20.11 1.65708C21.0082 2.55409 21.0082 4.0085 20.11 4.90551L18.8795 6.14008L14.86 2.12137L16.0945 0.888443C16.9928 -0.00871265 18.4447 -0.00871265 19.343 0.888443L20.11 1.65708ZM7.07109 9.91352L13.933 3.04914L17.9525 7.06704L11.0865 13.9289C10.8363 14.1832 10.5287 14.3719 10.1883 14.4868L6.54609 15.7008C6.15645 15.8157 5.80371 15.7254 5.53711 15.426C5.27461 15.1963 5.18437 14.8067 5.29922 14.4539L6.51328 10.8118C6.62813 10.4713 6.8168 10.1637 7.07109 9.91352ZM7.875 2.58813C8.60098 2.58813 9.1875 3.2128 9.1875 3.90063C9.1875 4.66352 8.60098 5.21313 7.875 5.21313H3.9375C3.21275 5.21313 2.625 5.83657 2.625 6.52563V17.0625C2.625 17.7885 3.21275 18.375 3.9375 18.375H14.4375C15.1635 18.375 15.75 17.7885 15.75 17.0625V13.0881C15.75 12.3991 16.3365 11.7756 17.0625 11.7756C17.7885 11.7756 18.375 12.3991 18.375 13.0881V17.0625C18.375 19.2364 16.6113 21 14.4375 21H3.9375C1.76285 21 0 19.2364 0 17.0625V6.52563C0 4.3518 1.76285 2.58813 3.9375 2.58813H7.875Z" fill="#C6C4C4"/>
</svg>
