<svg width="37" height="34" viewBox="0 0 37 34" fill="none" xmlns="http://www.w3.org/2000/svg">
<g filter="url(#filter0_d_6_82)">
<path d="M9.4375 25.3125H13.0625C14.065 25.3125 14.875 24.5584 14.875 23.625C14.875 22.6916 14.065 21.9375 13.0625 21.9375H9.4375C8.43666 21.9375 7.625 21.1818 7.625 20.25V6.75C7.625 5.81818 8.43666 5.0625 9.4375 5.0625H13.0625C14.065 5.0625 14.875 4.30682 14.875 3.375C14.875 2.44318 14.065 1.6875 13.0625 1.6875H9.4375C6.43441 1.6875 4 3.95402 4 6.75V20.25C4 23.0449 6.43441 25.3125 9.4375 25.3125ZM32.5922 12.5771L24.4303 5.40527C24.0352 5.05839 23.4561 4.96362 22.9576 5.16301C22.459 5.36324 22.1358 5.82061 22.1358 6.3258L22.1306 10.1227L14.8806 10.1226C13.8786 10.1226 13.0669 10.8783 13.0669 11.8101V15.1851C13.0669 16.1169 13.8792 16.8726 14.8806 16.8726L22.1306 16.8727L22.1358 20.6221C22.1358 21.1272 22.459 21.5845 22.9576 21.7849C23.4562 21.9843 24.0355 21.8895 24.4303 21.5426L32.5922 14.3707C33.1359 13.943 33.1359 13.057 32.5922 12.5771Z" fill="#262626"/>
</g>
<defs>
<filter id="filter0_d_6_82" x="0" y="0" width="37" height="35" filterUnits="userSpaceOnUse" color-interpolation-filters="sRGB">
<feFlood flood-opacity="0" result="BackgroundImageFix"/>
<feColorMatrix in="SourceAlpha" type="matrix" values="0 0 0 0 0 0 0 0 0 0 0 0 0 0 0 0 0 0 127 0" result="hardAlpha"/>
<feOffset dy="4"/>
<feGaussianBlur stdDeviation="2"/>
<feComposite in2="hardAlpha" operator="out"/>
<feColorMatrix type="matrix" values="0 0 0 0 0 0 0 0 0 0 0 0 0 0 0 0 0 0 0.25 0"/>
<feBlend mode="normal" in2="BackgroundImageFix" result="effect1_dropShadow_6_82"/>
<feBlend mode="normal" in="SourceGraphic" in2="effect1_dropShadow_6_82" result="shape"/>
</filter>
</defs>
</svg>
