<svg width="26" height="26" viewBox="0 0 26 26" fill="none" xmlns="http://www.w3.org/2000/svg">
<path d="M4.875 1.62703H1.625C0.727695 1.62703 0 2.35422 0 3.20633V14.5356C0 15.4329 0.727695 16.1149 1.625 16.1149H4.875C5.7723 16.1149 6.5 15.3872 6.5 14.5356V3.25152C6.5 2.35422 5.77383 1.62703 4.875 1.62703ZM23.7301 12.1977C24.1262 11.766 24.375 11.1922 24.375 10.5574C24.375 9.36559 23.5183 8.37789 22.3874 8.16613C22.6129 7.8 22.75 7.36836 22.75 6.86055C22.75 5.77789 22.0391 4.87094 21.0615 4.55355C21.0996 4.42406 21.125 4.24582 21.125 4.06148C21.125 2.71527 20.0332 1.625 18.6875 1.625H15.7071C13.9496 1.625 12.2398 2.19477 10.8337 3.24898L9.1 4.54848C8.48555 5.00855 8.125 5.7332 8.125 6.4543L8.13045 14.5793C8.13045 14.5793 8.12927 14.5781 8.13045 14.5793C8.13402 15.2897 8.44139 15.9981 9.03995 16.4765L9.86768 17.1382C14.0258 20.5105 12.157 24.375 15.3613 24.375C16.9335 24.375 17.8735 23.1298 17.8735 21.9319C17.8735 21.1626 17.2763 18.9805 16.1205 17.0559H23.5625C24.9092 17.0559 26 15.9656 26 14.6194C26 13.3301 24.9945 12.284 23.7301 12.1977Z" fill="#C6C4C4"/>
</svg>
