<svg width="26" height="26" viewBox="0 0 26 26" fill="none" xmlns="http://www.w3.org/2000/svg">
<path d="M6.5 22.7043V11.3293C6.5 10.432 5.7723 9.75 4.875 9.75H1.625C0.727695 9.75 0 10.4777 0 11.3293V22.6586C0 23.5559 0.727695 24.2379 1.625 24.2379H4.875C5.77383 24.3293 6.5 23.6438 6.5 22.7043ZM26 11.3801C26 10.0344 24.9092 8.94359 23.5625 8.94359H16.123C17.2793 7.01848 17.876 4.83641 17.876 4.06758C17.875 2.87016 16.9355 1.625 15.3613 1.625C12.1555 1.625 14.0227 5.49199 9.8668 8.81563L9.03906 9.47578C8.43984 9.9582 8.13516 10.6641 8.13008 11.375C8.12889 11.3762 8.13008 11.375 8.13008 11.375L8.125 19.5C8.125 20.2668 8.48621 20.9894 9.1 21.4495L10.8337 22.749C12.2383 23.8063 13.9496 24.375 15.7066 24.375H18.6875C20.0342 24.375 21.125 23.2847 21.125 21.9385C21.125 21.7539 21.1006 21.5758 21.0617 21.4028C22.0391 21.0844 22.75 20.1805 22.75 19.0938C22.75 18.6292 22.613 18.1995 22.3875 17.8303C23.5168 17.6211 24.375 16.6309 24.375 15.4426C24.375 14.8078 24.1265 14.235 23.7291 13.8013C24.9945 13.716 26 12.6699 26 11.3801Z" fill="#C6C4C4"/>
</svg>
